<svg xmlns="http://www.w3.org/2000/svg" xmlns:xlink="http://www.w3.org/1999/xlink" width="400" zoomAndPan="magnify" viewBox="0 0 300 299.999988" height="400" preserveAspectRatio="xMidYMid meet" version="1.0"><defs><clipPath id="71d4d72732"><path d="M 30 79.972656 L 150 79.972656 L 150 199.972656 L 30 199.972656 Z M 30 79.972656 " clip-rule="nonzero"/></clipPath><clipPath id="fff090f5fa"><path d="M 45 150 L 135 150 L 135 199.972656 L 45 199.972656 Z M 45 150 " clip-rule="nonzero"/></clipPath><clipPath id="1a42a2e187"><path d="M 5.8125 11 L 294.5625 11 L 294.5625 300 L 5.8125 300 Z M 5.8125 11 " clip-rule="nonzero"/></clipPath></defs><g clip-path="url(#71d4d72732)"><path fill="#b3b3b3" d="M 150.003906 139.976562 C 150.003906 155.324219 144.246094 169.324219 134.757812 179.9375 C 123.773438 192.238281 107.792969 199.976562 90.003906 199.976562 C 72.214844 199.976562 56.226562 192.238281 45.246094 179.9375 C 35.761719 169.324219 30 155.324219 30 139.976562 C 30 106.839844 56.863281 79.972656 90.003906 79.972656 C 123.140625 79.972656 150.003906 106.839844 150.003906 139.976562 " fill-opacity="1" fill-rule="nonzero"/></g><path fill="#f2f2f2" d="M 90.003906 151.027344 C 100.878906 151.027344 110.785156 138.722656 110.785156 125.214844 C 110.785156 112.449219 108.316406 99.828125 90.003906 99.828125 C 71.691406 99.828125 69.21875 112.449219 69.21875 125.214844 C 69.21875 138.722656 79.125 151.027344 90.003906 151.027344 " fill-opacity="1" fill-rule="nonzero"/><g clip-path="url(#fff090f5fa)"><path fill="#f2f2f2" d="M 134.757812 179.9375 C 123.773438 192.238281 107.792969 199.976562 90.003906 199.976562 C 72.214844 199.976562 56.226562 192.238281 45.246094 179.9375 C 45.058594 172.527344 49.992188 155.355469 75.164062 150.070312 C 79.46875 154.464844 84.769531 156.949219 90.003906 156.949219 C 95.238281 156.949219 100.535156 154.464844 104.839844 150.070312 C 130.015625 155.355469 134.945312 172.527344 134.757812 179.9375 " fill-opacity="1" fill-rule="nonzero"/></g><g clip-path="url(#1a42a2e187)"><path fill="#f3a61e" d="M 294.523438 155.832031 C 294.523438 176.117188 290.332031 195.429688 282.738281 212.925781 C 260.601562 264.136719 209.589844 299.972656 150.195312 299.972656 C 90.796875 299.972656 44.765625 267.554688 21.09375 220.308594 C 11.351562 200.914062 5.867188 179.007812 5.867188 155.832031 C 5.867188 76.226562 70.484375 11.710938 150.195312 11.710938 C 229.902344 11.710938 294.523438 76.226562 294.523438 155.832031 Z M 294.523438 155.832031 " fill-opacity="1" fill-rule="nonzero"/></g><path fill="#3d3b3c" d="M 282.738281 212.925781 C 260.601562 264.136719 209.589844 299.972656 150.195312 299.972656 C 90.796875 299.972656 44.765625 267.554688 21.09375 220.308594 C 25.265625 217.980469 29.964844 216.101562 35.207031 214.683594 C 53.050781 209.914062 79.457031 203.722656 79.457031 203.722656 L 87.578125 183.699219 L 86.28125 137.609375 C 86.28125 137.609375 104.285156 136.234375 114.148438 137.609375 C 124.007812 138.964844 161.171875 153.949219 161.171875 153.949219 L 182.027344 141.085938 C 182.027344 141.085938 198.167969 139.207031 206.1875 139.632812 C 214.207031 140.078125 224.738281 186.511719 224.738281 186.511719 L 232.433594 199.839844 C 232.433594 199.839844 245.921875 206.453125 264.125 210.175781 C 271.375 211.652344 277.410156 211.953125 282.738281 212.925781 Z M 282.738281 212.925781 " fill-opacity="1" fill-rule="nonzero"/><path fill="#56352c" d="M 106.929688 106.066406 C 106.929688 106.066406 96.078125 98.570312 93.863281 95.742188 C 91.648438 92.917969 86.875 86.515625 83.898438 78.898438 C 80.921875 71.277344 72.1875 60.453125 75.394531 53.601562 C 78.601562 46.753906 95.414062 32.722656 95.414062 32.722656 C 95.414062 32.722656 98.453125 13.996094 112.128906 8.238281 C 125.804688 2.472656 169.390625 0.0078125 192.25 11.695312 C 203.996094 17.703125 218.804688 19.746094 222.394531 24.027344 C 222.394531 24.027344 216.144531 25.226562 213.34375 29.945312 C 212.359375 31.609375 220.1875 36.390625 221.300781 37.46875 C 227.714844 43.660156 230.914062 42.800781 230.914062 42.800781 C 230.914062 42.800781 223.226562 46.003906 214.679688 44.722656 C 214.679688 44.722656 220.019531 48.992188 226.214844 60.511719 C 232.414062 72.035156 227.28125 76.800781 227.28125 76.800781 C 227.28125 76.800781 228.074219 70.542969 216.136719 68.199219 C 216.136719 68.199219 217.191406 74.40625 214.671875 81.128906 C 212.15625 87.847656 202.921875 98.285156 202.921875 98.285156 L 150.1875 131.992188 L 106.925781 106.058594 Z M 106.929688 106.066406 " fill-opacity="1" fill-rule="nonzero"/><path fill="#da8059" d="M 102.402344 100.773438 C 102.402344 100.773438 97.988281 89.441406 91.117188 90.527344 C 84.242188 91.609375 82.054688 104.210938 85.511719 115.832031 C 88.960938 127.457031 96.550781 138.945312 104.671875 132.789062 C 110.847656 128.101562 102.402344 100.773438 102.402344 100.773438 Z M 102.402344 100.773438 " fill-opacity="1" fill-rule="nonzero"/><path fill="#da8059" d="M 198.195312 96.214844 C 198.195312 96.214844 201.171875 85.160156 207.714844 85.46875 C 214.253906 85.78125 217.597656 97.363281 215.550781 108.59375 C 213.511719 119.832031 207.578125 131.359375 199.351562 126.425781 C 193.085938 122.667969 198.195312 96.214844 198.195312 96.214844 Z M 198.195312 96.214844 " fill-opacity="1" fill-rule="nonzero"/><path fill="#fbc092" d="M 206.1875 200.0625 L 197.664062 224.898438 L 130.996094 239.238281 L 95.414062 204.773438 C 95.414062 204.773438 111.472656 197.273438 114.917969 188.917969 C 116.132812 185.925781 116.132812 179.9375 115.625 173.46875 C 114.695312 161.816406 112.121094 148.609375 112.121094 148.609375 L 189.945312 144.605469 C 189.945312 144.605469 189.257812 156.84375 189.054688 168.734375 C 188.894531 177.773438 189.015625 186.632812 189.945312 189.789062 C 192.09375 197.070312 206.1875 200.0625 206.1875 200.0625 Z M 206.1875 200.0625 " fill-opacity="1" fill-rule="nonzero"/><path fill="#da8059" d="M 189.945312 144.605469 C 189.945312 144.605469 189.257812 156.84375 189.054688 168.734375 C 177.210938 179.960938 157.019531 198.183594 141.363281 195.875 C 130.449219 194.277344 119.925781 185.925781 115.625 173.46875 C 114.695312 161.816406 112.121094 148.609375 112.121094 148.609375 Z M 189.945312 144.605469 " fill-opacity="1" fill-rule="nonzero"/><path fill="#fbc092" d="M 98.464844 93.167969 C 98.464844 93.167969 103.144531 127.039062 102.808594 134.210938 C 102.476562 141.382812 103.304688 146.554688 107.816406 150.230469 C 112.324219 153.898438 135.214844 174.753906 143.894531 176.089844 C 152.578125 177.425781 160.433594 176.925781 166.28125 173.421875 C 172.125 169.914062 189.832031 155.398438 194.011719 151.902344 C 198.1875 148.402344 199.527344 144.742188 199.527344 134.972656 C 199.527344 125.203125 198.6875 100.847656 199.527344 86.839844 C 199.9375 79.960938 196.523438 38.292969 196.523438 38.292969 L 138.21875 22.441406 L 105.3125 37.457031 L 91.109375 50.972656 L 98.460938 93.183594 Z M 98.464844 93.167969 " fill-opacity="1" fill-rule="nonzero"/><path stroke-linecap="round" transform="matrix(0.675034, 0, 0, 0.674157, 5.86524, -8.764044)" fill="none" stroke-linejoin="round" d="M 206.618657 148.35997 C 206.618657 148.35997 210.790901 184.307628 209.662485 190.14246 " stroke="#da8059" stroke-width="6" stroke-opacity="1" stroke-miterlimit="4"/><path stroke-linecap="round" transform="matrix(0.675034, 0, 0, 0.674157, 5.86524, -8.764044)" fill="none" stroke-linejoin="round" d="M 145.909903 144.008472 C 145.909903 144.008472 167.239849 127.871427 177.99741 127.100789 C 188.760758 126.330151 192.030269 128.450854 192.030269 128.450854 " stroke="#7d2929" stroke-width="6" stroke-opacity="1" stroke-miterlimit="4"/><path stroke-linecap="round" transform="matrix(0.675034, 0, 0, 0.674157, 5.86524, -8.764044)" fill="none" stroke-linejoin="round" d="M 230.078126 128.439265 C 230.078126 128.439265 234.117274 127.141349 242.57171 126.932755 C 251.02036 126.718367 269.277544 139.77286 269.277544 139.77286 " stroke="#7d2929" stroke-width="6" stroke-opacity="1" stroke-miterlimit="4"/><path fill="#3d1119" d="M 131.207031 97.867188 C 131.25 98.328125 131.265625 98.785156 131.25 99.242188 C 131.238281 99.699219 131.195312 100.148438 131.125 100.582031 C 131.054688 101.019531 130.957031 101.4375 130.832031 101.832031 C 130.707031 102.230469 130.554688 102.601562 130.382812 102.949219 C 130.207031 103.292969 130.011719 103.605469 129.796875 103.882812 C 129.578125 104.164062 129.34375 104.402344 129.09375 104.605469 C 128.84375 104.804688 128.578125 104.964844 128.304688 105.082031 C 128.027344 105.199219 127.746094 105.269531 127.453125 105.296875 C 127.164062 105.324219 126.871094 105.308594 126.582031 105.242188 C 126.289062 105.179688 126 105.074219 125.714844 104.921875 C 125.429688 104.773438 125.15625 104.582031 124.890625 104.347656 C 124.625 104.113281 124.375 103.84375 124.136719 103.539062 C 123.902344 103.230469 123.683594 102.894531 123.488281 102.527344 C 123.289062 102.160156 123.117188 101.769531 122.964844 101.351562 C 122.8125 100.9375 122.6875 100.507812 122.589844 100.0625 C 122.488281 99.613281 122.417969 99.160156 122.375 98.699219 C 122.332031 98.238281 122.316406 97.78125 122.332031 97.324219 C 122.34375 96.867188 122.386719 96.421875 122.457031 95.984375 C 122.527344 95.550781 122.625 95.132812 122.75 94.734375 C 122.875 94.335938 123.023438 93.964844 123.199219 93.617188 C 123.375 93.273438 123.570312 92.960938 123.785156 92.683594 C 124.003906 92.40625 124.234375 92.164062 124.488281 91.964844 C 124.738281 91.761719 125.003906 91.601562 125.277344 91.484375 C 125.554688 91.371094 125.835938 91.296875 126.125 91.269531 C 126.417969 91.242188 126.707031 91.261719 127 91.324219 C 127.292969 91.386719 127.582031 91.492188 127.867188 91.644531 C 128.152344 91.796875 128.425781 91.988281 128.691406 92.21875 C 128.957031 92.453125 129.207031 92.722656 129.441406 93.03125 C 129.679688 93.335938 129.894531 93.671875 130.09375 94.039062 C 130.289062 94.410156 130.464844 94.800781 130.617188 95.214844 C 130.765625 95.628906 130.890625 96.058594 130.992188 96.507812 C 131.089844 96.953125 131.164062 97.40625 131.207031 97.867188 Z M 131.207031 97.867188 " fill-opacity="1" fill-rule="nonzero"/><path fill="#3d1119" d="M 171.933594 88.808594 C 172.21875 88.859375 172.496094 88.957031 172.761719 89.097656 C 173.023438 89.238281 173.273438 89.421875 173.503906 89.644531 C 173.734375 89.867188 173.945312 90.128906 174.136719 90.425781 C 174.328125 90.722656 174.496094 91.050781 174.636719 91.410156 C 174.78125 91.769531 174.894531 92.152344 174.984375 92.5625 C 175.070312 92.96875 175.132812 93.394531 175.164062 93.832031 C 175.195312 94.273438 175.195312 94.722656 175.167969 95.179688 C 175.140625 95.636719 175.082031 96.089844 175 96.546875 C 174.914062 97 174.800781 97.445312 174.664062 97.882812 C 174.523438 98.316406 174.359375 98.734375 174.171875 99.132812 C 173.984375 99.535156 173.773438 99.90625 173.542969 100.257812 C 173.316406 100.605469 173.070312 100.921875 172.804688 101.203125 C 172.542969 101.488281 172.269531 101.734375 171.984375 101.941406 C 171.699219 102.152344 171.40625 102.316406 171.109375 102.441406 C 170.8125 102.566406 170.515625 102.648438 170.21875 102.683594 C 169.921875 102.71875 169.628906 102.710938 169.34375 102.65625 C 169.058594 102.605469 168.78125 102.507812 168.519531 102.367188 C 168.253906 102.226562 168.007812 102.042969 167.773438 101.820312 C 167.542969 101.597656 167.332031 101.335938 167.140625 101.039062 C 166.949219 100.742188 166.78125 100.414062 166.640625 100.054688 C 166.5 99.695312 166.382812 99.3125 166.292969 98.902344 C 166.207031 98.496094 166.148438 98.070312 166.117188 97.632812 C 166.085938 97.191406 166.082031 96.742188 166.109375 96.285156 C 166.136719 95.828125 166.195312 95.375 166.28125 94.917969 C 166.363281 94.464844 166.476562 94.019531 166.617188 93.582031 C 166.753906 93.148438 166.917969 92.730469 167.105469 92.332031 C 167.296875 91.929688 167.503906 91.558594 167.734375 91.207031 C 167.964844 90.859375 168.210938 90.542969 168.472656 90.261719 C 168.734375 89.976562 169.007812 89.730469 169.292969 89.523438 C 169.578125 89.3125 169.871094 89.148438 170.167969 89.023438 C 170.464844 88.898438 170.761719 88.816406 171.058594 88.78125 C 171.355469 88.746094 171.648438 88.753906 171.933594 88.808594 Z M 171.933594 88.808594 " fill-opacity="1" fill-rule="nonzero"/><path stroke-linecap="round" transform="matrix(0.675034, 0, 0, 0.674157, 5.86524, -8.764044)" fill="none" stroke-linejoin="round" d="M 174.282319 217.108998 C 174.282319 217.108998 186.561794 230.470587 203.152396 230.470587 C 229.649906 230.470587 244.122558 217.108998 244.122558 217.108998 " stroke="#7d2929" stroke-width="3" stroke-opacity="1" stroke-miterlimit="4"/><path fill="#3d3b3c" d="M 153.738281 231.816406 C 153.738281 231.816406 134.972656 226.914062 121.660156 215.007812 C 108.347656 203.101562 95.433594 189.417969 89.875 172.753906 C 84.3125 156.085938 87.789062 151.484375 94.449219 149.496094 L 86.269531 137.601562 C 86.269531 137.601562 68.027344 137.703125 65.457031 145.636719 C 62.886719 153.578125 77.5 177.628906 77.148438 181.246094 C 76.796875 184.867188 71.632812 183.113281 65.152344 186.734375 C 58.679688 190.355469 59.03125 202.847656 65.921875 212.183594 C 72.820312 221.519531 80.644531 240.269531 93.789062 244.414062 C 106.929688 248.5625 147.074219 239.246094 147.074219 239.246094 C 147.074219 239.246094 176.683594 249.945312 196.226562 243.726562 C 215.765625 237.511719 234.902344 212.40625 239.980469 207.800781 C 245.050781 203.199219 249.667969 201.121094 245.050781 194.675781 C 240.441406 188.230469 232.59375 182.472656 232.59375 182.472656 C 232.59375 182.472656 239.972656 153.351562 235.132812 146.609375 C 230.292969 139.867188 206.179688 139.636719 206.179688 139.636719 C 206.179688 139.636719 210.003906 151.078125 209.3125 155.839844 C 208.625 160.597656 212.648438 159.480469 213.464844 165.660156 C 214.457031 173.175781 163.464844 229.117188 153.738281 231.816406 Z M 153.738281 231.816406 " fill-opacity="1" fill-rule="nonzero"/><path fill="#56352c" d="M 99.15625 98.292969 C 99.15625 98.292969 100.820312 91.90625 101.375 85.464844 C 101.929688 79.019531 98.191406 62.003906 101.375 58.125 C 103.125 56.003906 111.222656 49.699219 119.925781 46.585938 C 127.082031 44.023438 134.90625 44.5 137.671875 43.597656 C 141.582031 42.324219 157.113281 39.183594 168.332031 42.78125 C 179.550781 46.382812 187.265625 52.457031 188.65625 62.136719 C 190.042969 71.824219 196.582031 88.765625 199.574219 88.320312 C 202.5625 87.875 202.875 32.691406 202.875 32.691406 L 166.285156 18.257812 L 118.40625 19.832031 L 83.898438 50.730469 Z M 99.15625 98.292969 " fill-opacity="1" fill-rule="nonzero"/></svg>